<?xml version="1.0" encoding="iso-8859-1"?>
<!-- Uploaded to: SVG Repo, www.svgrepo.com, Generator: SVG Repo Mixer Tools -->
<!DOCTYPE svg PUBLIC "-//W3C//DTD SVG 1.1//EN" "http://www.w3.org/Graphics/SVG/1.1/DTD/svg11.dtd">
<svg fill="#000000" version="1.1" id="Capa_1" xmlns="http://www.w3.org/2000/svg" xmlns:xlink="http://www.w3.org/1999/xlink" 
	 width="800px" height="800px" viewBox="0 0 31.21 31.21" xml:space="preserve"
	>
<g>
	<path d="M14.569,4.853l-1.214-1.71l1.369-0.806l0.323-1.611l1.37,0.564L18.353,0l0.725,1.128l1.771-0.322L20.47,2.385
		c0.4,0.547,0.646,1.217,0.646,1.947c0,1.822-1.479,3.301-3.301,3.301C16.173,7.633,14.821,6.427,14.569,4.853z M17.748,9.833
		l-1.74-0.013v4.684l4.369,3.861l1.313-1.707l-3.896-3.764L17.748,9.833z M21.763,30.576l-2.967,0.375l-0.08-0.848l-0.646-5.479
		l-1.217-3.85l-0.509,4.229l-2.237,5.141l0.65,0.273l-0.33,0.792l-2.602-1.096l0.101-0.238l-0.007-0.002l2.318-5.594l0.042-1.104
		l-4.832-1.736l1.661-4.623l0.067,0.022l3.062-5.742V8.128h1.584l0.002-0.005l0.008,0.005h3.196v5.47l-0.896-0.905l0.008-3.191
		l-2.299-0.036l-0.265,0.496v4.935l0.026,0.004l3.427,2.91v1.018h-1.484l-0.148,0.332l1.349,0.023l1.37,5.211l0.842,5.426
		l0.688-0.096L21.763,30.576z M14.238,12.468l-2.449,4.593l2.449,0.879V12.468z M16.837,18.828h-0.129l0.11,0.039L16.837,18.828z"/>
</g>
</svg>